<?xml version="1.0" encoding="iso-8859-1"?>
<!-- Generator: Adobe Illustrator 16.0.0, SVG Export Plug-In . SVG Version: 6.00 Build 0)  -->
<!DOCTYPE svg PUBLIC "-//W3C//DTD SVG 1.1//EN" "http://www.w3.org/Graphics/SVG/1.1/DTD/svg11.dtd">
<svg version="1.1" id="Capa_1" xmlns="http://www.w3.org/2000/svg" xmlns:xlink="http://www.w3.org/1999/xlink" x="0px" y="0px"
	 width="35.738px" height="35.738px" viewBox="0 0 35.738 35.738" style="enable-background:new 0 0 35.738 35.738;"
	 xml:space="preserve">
<g>
	<path d="M0,35.667c0,0,11.596-37.07,35.738-35.55c0,0-2.994,4.849-10.551,6.416c0,0,3.518,0.429,6.369-0.522
		c0,0-1.711,5.515-11.025,6.273c0,0,5.133,1.331,7.414,0.57c0,0-0.619,4.111-10.102,6.154c-0.562,0.12-4.347,1.067-1.306,1.448
		c0,0,4.371,0.763,5.514,0.381c0,0-3.744,5.607-12.928,5.132c-0.903-0.047-1.332,0-1.332,0L0,35.667z"/>
</g>
<g>
</g>
<g>
</g>
<g>
</g>
<g>
</g>
<g>
</g>
<g>
</g>
<g>
</g>
<g>
</g>
<g>
</g>
<g>
</g>
<g>
</g>
<g>
</g>
<g>
</g>
<g>
</g>
<g>
</g>
</svg>
